<?xml version="1.0" encoding="utf-8"?>
<!-- Generator: Adobe Illustrator 16.0.0, SVG Export Plug-In . SVG Version: 6.00 Build 0)  -->
<!DOCTYPE svg PUBLIC "-//W3C//DTD SVG 1.1//EN" "http://www.w3.org/Graphics/SVG/1.1/DTD/svg11.dtd">
<svg version="1.1" id="Layer_1" xmlns="http://www.w3.org/2000/svg" xmlns:xlink="http://www.w3.org/1999/xlink" x="0px" y="0px"
	 width="500px" height="500px" viewBox="0 0 500 500" enable-background="new 0 0 500 500" xml:space="preserve">
<circle cx="250" cy="250" r="250"/>
<g>
	
		<text transform="matrix(1.4456 0 0 1 70.4395 396.8926)" fill="#EC178C" font-family="'AreYouFreakinSerious'" font-size="140.0979">AMOR</text>
	<path fill="#F5D6E6" d="M452.387,197.5c0,0-1.771-13.013,7.519-9.59c0,0,8.04,2.303-1.552,27.794c0,0-4.905-7.021-14.889-8.834
		c0,0-7.58-2.494-7.229-9.505C436.23,197.365,438.008,185.31,452.387,197.5z"/>
	<path fill="none" stroke="#FFFFFF" stroke-width="7" stroke-miterlimit="10" d="M433.074,234.041c0,0,9.021-15.277,15.991-3.875
		c0,0,3.298,9.183-28.215,28.172c0,0,8.314-10.503-5.079-21.833c0,0-5.953-8.997,0.286-16.14
		C416.06,220.364,428.042,209.071,433.074,234.041z"/>
	<g>
		<path fill="#F5D6E6" d="M358.074,424.986c0,2.057-1.667,3.721-3.725,3.721H142.136c-2.056,0-3.725-1.664-3.725-3.721l0,0
			c0-2.059,1.668-3.727,3.725-3.727h212.216C356.407,421.262,358.074,422.93,358.074,424.986L358.074,424.986z"/>
		<path fill="#F5D6E6" d="M281.752,473.385c0,1.372-1.109,2.481-2.48,2.481h-62.672c-1.372,0-2.482-1.109-2.482-2.481l0,0
			c0-1.37,1.111-2.479,2.482-2.479h62.672C280.643,470.904,281.752,472.015,281.752,473.385L281.752,473.385z"/>
		<path fill="#F5D6E6" d="M218.458,426.848c0,0,31.027,12.407,18.618,45.296h24.199c0,0-22.336-25.439,15.514-44.057
			C276.788,428.087,249.484,420.021,218.458,426.848z"/>
	</g>
	<g>
		<g>
			<text transform="matrix(1 0 0 1 84.834 277.5049)" fill="#FFFFFF" font-family="'clementinesketch'" font-size="81.6773">Dulce</text>
			<path fill="none" stroke="#FFFFFF" stroke-width="7" stroke-miterlimit="10" d="M404.188,259.475c0,0,8.918-0.896,10.7-14.277
				c0,0,8.923-4.46,7.146,2.678c0,0,5.354,13.384-17.847,24.98"/>
		</g>
	</g>
</g>
<g>
	<polygon fill="#EC178C" points="214.835,105.646 227.801,145.487 231.791,145.487 223.313,105.646 	"/>
	<polygon fill="#EC178C" points="231.791,102.155 238.772,102.155 242.761,145.487 237.276,145.487 	"/>
	<polygon fill="#EC178C" points="247.748,105.646 256.227,105.646 253.232,145.487 247.748,145.487 	"/>
	<polygon fill="#EC178C" points="262.21,102.155 269.191,102.155 265.7,145.487 262.21,145.487 	"/>
	<polygon fill="#EC178C" points="276.671,105.646 283.652,105.646 276.671,145.487 272.682,145.487 	"/>
	<path fill="#EC178C" d="M200.873,67.248c0,0,12.966-30.419,52.361-37.899c0,0,18.949-2.287,12.467,9.828c0,0-3.49-9.122-6.98,0
		c0,0-1.996,7.954,10.473,9.037c0,0,29.92-3.904,32.412,23.523c0,0,3.489,21.443-17.951,25.931c0,0-12.467,0.997-17.951-7.979
		c0,0-13.963,15.957-31.417-0.499c0,0-16.955,19.448-33.411-0.997C200.873,88.192,193.892,73.232,200.873,67.248z"/>
</g>
</svg>
